<svg xmlns="http://www.w3.org/2000/svg" xmlns:xlink="http://www.w3.org/1999/xlink" width="500" zoomAndPan="magnify" viewBox="0 0 375 374.999991" height="500" preserveAspectRatio="xMidYMid meet" version="1.0"><defs><clipPath id="fdad240d46"><path d="M 162.425781 143 L 183 143 L 183 164 L 162.425781 164 Z M 162.425781 143 " clip-rule="nonzero"/></clipPath></defs><path fill="#aa2ee6" d="M 172.992188 115.277344 C 177.273438 109.605469 185.414062 108.46875 191.085938 112.738281 L 231.238281 143 C 236.914062 147.277344 238.058594 155.421875 233.777344 161.09375 C 229.5 166.765625 221.355469 167.914062 215.683594 163.632812 L 175.539062 133.375 C 169.859375 129.101562 168.722656 120.960938 172.992188 115.277344 Z M 172.992188 115.277344 " fill-opacity="0.8" fill-rule="evenodd"/><path fill="#000000" d="M 172.992188 191.316406 C 177.273438 196.992188 185.414062 198.128906 191.085938 193.855469 L 231.238281 163.597656 C 236.914062 159.316406 238.058594 151.175781 233.777344 145.503906 C 229.5 139.828125 221.355469 138.683594 215.683594 142.960938 L 175.539062 173.222656 C 169.859375 177.492188 168.722656 185.636719 172.992188 191.316406 Z M 172.992188 191.316406 " fill-opacity="0.8" fill-rule="evenodd"/><g clip-path="url(#fdad240d46)"><path fill="#000000" d="M 182.539062 153.296875 C 182.539062 153.957031 182.472656 154.613281 182.34375 155.257812 C 182.214844 155.90625 182.023438 156.535156 181.773438 157.144531 C 181.519531 157.753906 181.210938 158.332031 180.84375 158.882812 C 180.476562 159.429688 180.058594 159.9375 179.59375 160.40625 C 179.125 160.871094 178.617188 161.289062 178.070312 161.65625 C 177.523438 162.023438 176.941406 162.332031 176.332031 162.582031 C 175.722656 162.835938 175.09375 163.027344 174.445312 163.15625 C 173.800781 163.285156 173.144531 163.347656 172.484375 163.347656 C 171.828125 163.347656 171.171875 163.285156 170.527344 163.15625 C 169.878906 163.027344 169.25 162.835938 168.640625 162.582031 C 168.03125 162.332031 167.449219 162.023438 166.902344 161.65625 C 166.355469 161.289062 165.847656 160.871094 165.378906 160.40625 C 164.914062 159.9375 164.496094 159.429688 164.128906 158.882812 C 163.761719 158.332031 163.453125 157.753906 163.199219 157.144531 C 162.949219 156.535156 162.757812 155.90625 162.628906 155.257812 C 162.5 154.613281 162.433594 153.957031 162.433594 153.296875 C 162.433594 152.636719 162.5 151.984375 162.628906 151.335938 C 162.757812 150.691406 162.949219 150.0625 163.199219 149.453125 C 163.453125 148.84375 163.761719 148.261719 164.128906 147.714844 C 164.496094 147.164062 164.914062 146.65625 165.378906 146.191406 C 165.847656 145.722656 166.355469 145.308594 166.902344 144.941406 C 167.449219 144.574219 168.03125 144.265625 168.640625 144.011719 C 169.25 143.757812 169.878906 143.570312 170.527344 143.441406 C 171.171875 143.3125 171.828125 143.246094 172.484375 143.246094 C 173.144531 143.246094 173.800781 143.3125 174.445312 143.441406 C 175.09375 143.570312 175.722656 143.757812 176.332031 144.011719 C 176.941406 144.265625 177.523438 144.574219 178.070312 144.941406 C 178.617188 145.308594 179.125 145.722656 179.59375 146.191406 C 180.058594 146.65625 180.476562 147.164062 180.84375 147.714844 C 181.210938 148.261719 181.519531 148.84375 181.773438 149.453125 C 182.023438 150.0625 182.214844 150.691406 182.34375 151.335938 C 182.472656 151.984375 182.539062 152.636719 182.539062 153.296875 Z M 182.539062 153.296875 " fill-opacity="1" fill-rule="nonzero"/></g></svg>