<svg xmlns="http://www.w3.org/2000/svg" xmlns:xlink="http://www.w3.org/1999/xlink" width="500" zoomAndPan="magnify" viewBox="0 0 375 374.999991" height="500" preserveAspectRatio="xMidYMid meet" version="1.0"><defs><g/><clipPath id="b01710ac2d"><path d="M 162.425781 143 L 183 143 L 183 164 L 162.425781 164 Z M 162.425781 143 " clip-rule="nonzero"/></clipPath></defs><rect x="-37.5" width="450" fill="#ffffff" y="-37.499999" height="449.999989" fill-opacity="1"/><rect x="-37.5" width="450" fill="#ffffff" y="-37.499999" height="449.999989" fill-opacity="1"/><path fill="#aa2ee6" d="M 172.992188 115.277344 C 177.273438 109.605469 185.414062 108.46875 191.085938 112.738281 L 231.238281 143 C 236.914062 147.277344 238.058594 155.421875 233.777344 161.09375 C 229.5 166.765625 221.355469 167.914062 215.683594 163.632812 L 175.539062 133.375 C 169.859375 129.101562 168.722656 120.960938 172.992188 115.277344 Z M 172.992188 115.277344 " fill-opacity="0.8" fill-rule="evenodd"/><path fill="#000000" d="M 172.992188 191.316406 C 177.273438 196.992188 185.414062 198.128906 191.085938 193.855469 L 231.238281 163.597656 C 236.914062 159.316406 238.058594 151.175781 233.777344 145.503906 C 229.5 139.828125 221.355469 138.683594 215.683594 142.960938 L 175.539062 173.222656 C 169.859375 177.492188 168.722656 185.636719 172.992188 191.316406 Z M 172.992188 191.316406 " fill-opacity="0.8" fill-rule="evenodd"/><g clip-path="url(#b01710ac2d)"><path fill="#000000" d="M 182.539062 153.296875 C 182.539062 153.957031 182.472656 154.613281 182.34375 155.257812 C 182.214844 155.90625 182.023438 156.535156 181.773438 157.144531 C 181.519531 157.753906 181.210938 158.332031 180.84375 158.882812 C 180.476562 159.429688 180.058594 159.9375 179.59375 160.40625 C 179.125 160.871094 178.617188 161.289062 178.070312 161.65625 C 177.523438 162.023438 176.941406 162.332031 176.332031 162.582031 C 175.722656 162.835938 175.09375 163.027344 174.445312 163.15625 C 173.800781 163.285156 173.144531 163.347656 172.484375 163.347656 C 171.828125 163.347656 171.171875 163.285156 170.527344 163.15625 C 169.878906 163.027344 169.25 162.835938 168.640625 162.582031 C 168.03125 162.332031 167.449219 162.023438 166.902344 161.65625 C 166.355469 161.289062 165.847656 160.871094 165.378906 160.40625 C 164.914062 159.9375 164.496094 159.429688 164.128906 158.882812 C 163.761719 158.332031 163.453125 157.753906 163.199219 157.144531 C 162.949219 156.535156 162.757812 155.90625 162.628906 155.257812 C 162.5 154.613281 162.433594 153.957031 162.433594 153.296875 C 162.433594 152.636719 162.5 151.984375 162.628906 151.335938 C 162.757812 150.691406 162.949219 150.0625 163.199219 149.453125 C 163.453125 148.84375 163.761719 148.261719 164.128906 147.714844 C 164.496094 147.164062 164.914062 146.65625 165.378906 146.191406 C 165.847656 145.722656 166.355469 145.308594 166.902344 144.941406 C 167.449219 144.574219 168.03125 144.265625 168.640625 144.011719 C 169.25 143.757812 169.878906 143.570312 170.527344 143.441406 C 171.171875 143.3125 171.828125 143.246094 172.484375 143.246094 C 173.144531 143.246094 173.800781 143.3125 174.445312 143.441406 C 175.09375 143.570312 175.722656 143.757812 176.332031 144.011719 C 176.941406 144.265625 177.523438 144.574219 178.070312 144.941406 C 178.617188 145.308594 179.125 145.722656 179.59375 146.191406 C 180.058594 146.65625 180.476562 147.164062 180.84375 147.714844 C 181.210938 148.261719 181.519531 148.84375 181.773438 149.453125 C 182.023438 150.0625 182.214844 150.691406 182.34375 151.335938 C 182.472656 151.984375 182.539062 152.636719 182.539062 153.296875 Z M 182.539062 153.296875 " fill-opacity="1" fill-rule="nonzero"/></g><g fill="#000000" fill-opacity="1"><g transform="translate(113.485691, 240.102685)"><g><path d="M 6.234375 0 C 5.359375 0 4.671875 -0.238281 4.171875 -0.71875 C 3.679688 -1.195312 3.4375 -1.875 3.4375 -2.75 L 3.4375 -29.078125 C 3.4375 -29.941406 3.679688 -30.613281 4.171875 -31.09375 C 4.671875 -31.582031 5.359375 -31.828125 6.234375 -31.828125 L 15.171875 -31.828125 C 20.378906 -31.828125 24.414062 -30.429688 27.28125 -27.640625 C 30.15625 -24.859375 31.59375 -20.957031 31.59375 -15.9375 C 31.59375 -10.875 30.15625 -6.953125 27.28125 -4.171875 C 24.414062 -1.390625 20.378906 0 15.171875 0 Z M 14.8125 -4.734375 C 22.125 -4.734375 25.78125 -8.46875 25.78125 -15.9375 C 25.78125 -23.363281 22.125 -27.078125 14.8125 -27.078125 L 9.25 -27.078125 L 9.25 -4.734375 Z M 14.8125 -4.734375 "/></g></g></g><g fill="#000000" fill-opacity="1"><g transform="translate(147.515294, 240.102685)"><g><path d="M 32.28125 -3.46875 C 32.457031 -3.082031 32.546875 -2.691406 32.546875 -2.296875 C 32.546875 -1.609375 32.265625 -1.019531 31.703125 -0.53125 C 31.148438 -0.0507812 30.515625 0.1875 29.796875 0.1875 C 29.316406 0.1875 28.863281 0.0546875 28.4375 -0.203125 C 28.019531 -0.460938 27.691406 -0.863281 27.453125 -1.40625 L 24.734375 -7.453125 L 8.84375 -7.453125 L 6.140625 -1.40625 C 5.898438 -0.863281 5.566406 -0.460938 5.140625 -0.203125 C 4.722656 0.0546875 4.257812 0.1875 3.75 0.1875 C 3.050781 0.1875 2.414062 -0.0507812 1.84375 -0.53125 C 1.28125 -1.019531 1 -1.609375 1 -2.296875 C 1 -2.691406 1.085938 -3.082031 1.265625 -3.46875 L 13.71875 -30.25 C 13.988281 -30.84375 14.398438 -31.296875 14.953125 -31.609375 C 15.515625 -31.929688 16.113281 -32.09375 16.75 -32.09375 C 17.375 -32.09375 17.960938 -31.929688 18.515625 -31.609375 C 19.078125 -31.296875 19.492188 -30.84375 19.765625 -30.25 Z M 10.828125 -11.96875 L 22.75 -11.96875 L 16.796875 -25.375 Z M 10.828125 -11.96875 "/></g></g></g><g fill="#000000" fill-opacity="1"><g transform="translate(181.003311, 240.102685)"><g><path d="M 14.4375 0.40625 C 12.125 0.40625 9.9375 0.0976562 7.875 -0.515625 C 5.8125 -1.128906 4.132812 -1.96875 2.84375 -3.03125 C 2.15625 -3.539062 1.8125 -4.257812 1.8125 -5.1875 C 1.8125 -5.820312 2 -6.367188 2.375 -6.828125 C 2.75 -7.296875 3.191406 -7.53125 3.703125 -7.53125 C 4.242188 -7.53125 4.859375 -7.320312 5.546875 -6.90625 C 6.847656 -5.96875 8.203125 -5.289062 9.609375 -4.875 C 11.023438 -4.457031 12.59375 -4.25 14.3125 -4.25 C 16.507812 -4.25 18.191406 -4.628906 19.359375 -5.390625 C 20.535156 -6.160156 21.125 -7.28125 21.125 -8.75 C 21.125 -9.894531 20.570312 -10.773438 19.46875 -11.390625 C 18.375 -12.015625 16.550781 -12.613281 14 -13.1875 C 11.34375 -13.75 9.1875 -14.40625 7.53125 -15.15625 C 5.882812 -15.914062 4.640625 -16.878906 3.796875 -18.046875 C 2.953125 -19.222656 2.53125 -20.71875 2.53125 -22.53125 C 2.53125 -24.394531 3.054688 -26.0625 4.109375 -27.53125 C 5.160156 -29.007812 6.625 -30.160156 8.5 -30.984375 C 10.382812 -31.816406 12.5 -32.234375 14.84375 -32.234375 C 19.15625 -32.234375 22.664062 -31.085938 25.375 -28.796875 C 25.757812 -28.460938 26.035156 -28.140625 26.203125 -27.828125 C 26.367188 -27.515625 26.453125 -27.117188 26.453125 -26.640625 C 26.453125 -26.003906 26.265625 -25.453125 25.890625 -24.984375 C 25.515625 -24.515625 25.070312 -24.28125 24.5625 -24.28125 C 24.257812 -24.28125 23.976562 -24.328125 23.71875 -24.421875 C 23.46875 -24.515625 23.128906 -24.679688 22.703125 -24.921875 C 21.472656 -25.816406 20.273438 -26.484375 19.109375 -26.921875 C 17.953125 -27.359375 16.53125 -27.578125 14.84375 -27.578125 C 12.800781 -27.578125 11.1875 -27.160156 10 -26.328125 C 8.8125 -25.503906 8.21875 -24.359375 8.21875 -22.890625 C 8.21875 -21.648438 8.742188 -20.695312 9.796875 -20.03125 C 10.847656 -19.375 12.640625 -18.757812 15.171875 -18.1875 C 17.847656 -17.582031 20.019531 -16.910156 21.6875 -16.171875 C 23.363281 -15.441406 24.644531 -14.503906 25.53125 -13.359375 C 26.414062 -12.210938 26.859375 -10.785156 26.859375 -9.078125 C 26.859375 -7.210938 26.335938 -5.5625 25.296875 -4.125 C 24.265625 -2.695312 22.804688 -1.582031 20.921875 -0.78125 C 19.035156 0.0078125 16.875 0.40625 14.4375 0.40625 Z M 14.4375 0.40625 "/></g></g></g><g fill="#000000" fill-opacity="1"><g transform="translate(209.797591, 240.102685)"><g><path d="M 17.65625 0.40625 C 14.582031 0.40625 11.894531 -0.253906 9.59375 -1.578125 C 7.289062 -2.898438 5.519531 -4.796875 4.28125 -7.265625 C 3.050781 -9.734375 2.4375 -12.625 2.4375 -15.9375 C 2.4375 -19.25 3.050781 -22.128906 4.28125 -24.578125 C 5.519531 -27.035156 7.289062 -28.925781 9.59375 -30.25 C 11.894531 -31.570312 14.582031 -32.234375 17.65625 -32.234375 C 19.632812 -32.234375 21.492188 -31.9375 23.234375 -31.34375 C 24.984375 -30.757812 26.535156 -29.910156 27.890625 -28.796875 C 28.285156 -28.492188 28.554688 -28.175781 28.703125 -27.84375 C 28.859375 -27.519531 28.9375 -27.117188 28.9375 -26.640625 C 28.9375 -25.972656 28.753906 -25.410156 28.390625 -24.953125 C 28.035156 -24.503906 27.597656 -24.28125 27.078125 -24.28125 C 26.484375 -24.28125 25.867188 -24.492188 25.234375 -24.921875 C 23.941406 -25.878906 22.738281 -26.546875 21.625 -26.921875 C 20.507812 -27.296875 19.273438 -27.484375 17.921875 -27.484375 C 14.785156 -27.484375 12.410156 -26.503906 10.796875 -24.546875 C 9.191406 -22.597656 8.390625 -19.726562 8.390625 -15.9375 C 8.390625 -12.113281 9.191406 -9.222656 10.796875 -7.265625 C 12.410156 -5.304688 14.785156 -4.328125 17.921875 -4.328125 C 19.210938 -4.328125 20.40625 -4.519531 21.5 -4.90625 C 22.601562 -5.300781 23.847656 -5.96875 25.234375 -6.90625 C 25.535156 -7.082031 25.835938 -7.226562 26.140625 -7.34375 C 26.441406 -7.46875 26.753906 -7.53125 27.078125 -7.53125 C 27.597656 -7.53125 28.035156 -7.304688 28.390625 -6.859375 C 28.753906 -6.410156 28.9375 -5.851562 28.9375 -5.1875 C 28.9375 -4.738281 28.859375 -4.335938 28.703125 -3.984375 C 28.554688 -3.640625 28.285156 -3.320312 27.890625 -3.03125 C 26.535156 -1.914062 24.984375 -1.0625 23.234375 -0.46875 C 21.492188 0.113281 19.632812 0.40625 17.65625 0.40625 Z M 17.65625 0.40625 "/></g></g></g><g fill="#000000" fill-opacity="1"><g transform="translate(240.397153, 240.102685)"><g><path d="M 23.296875 -31.0625 C 23.835938 -31.71875 24.484375 -32.046875 25.234375 -32.046875 C 25.921875 -32.046875 26.535156 -31.78125 27.078125 -31.25 C 27.617188 -30.726562 27.890625 -30.109375 27.890625 -29.390625 C 27.890625 -28.785156 27.664062 -28.210938 27.21875 -27.671875 L 16.96875 -15.171875 L 16.96875 -2.65625 C 16.96875 -1.726562 16.695312 -1.007812 16.15625 -0.5 C 15.613281 0.0078125 14.921875 0.265625 14.078125 0.265625 C 13.210938 0.265625 12.507812 0.0078125 11.96875 -0.5 C 11.425781 -1.007812 11.15625 -1.726562 11.15625 -2.65625 L 11.15625 -15.171875 L 0.90625 -27.671875 C 0.445312 -28.210938 0.21875 -28.785156 0.21875 -29.390625 C 0.21875 -30.109375 0.488281 -30.726562 1.03125 -31.25 C 1.570312 -31.78125 2.191406 -32.046875 2.890625 -32.046875 C 3.640625 -32.046875 4.285156 -31.71875 4.828125 -31.0625 L 14.078125 -19.59375 Z M 23.296875 -31.0625 "/></g></g></g><g fill="#000000" fill-opacity="1"><g transform="translate(101.22036, 264.600216)"><g><path d="M 1.609375 0 C 1.453125 0 1.328125 -0.046875 1.234375 -0.140625 C 1.140625 -0.234375 1.09375 -0.351562 1.09375 -0.5 L 1.09375 -8.3125 C 1.09375 -8.457031 1.140625 -8.578125 1.234375 -8.671875 C 1.328125 -8.765625 1.453125 -8.8125 1.609375 -8.8125 L 6.28125 -8.8125 C 6.4375 -8.8125 6.554688 -8.773438 6.640625 -8.703125 C 6.722656 -8.628906 6.765625 -8.523438 6.765625 -8.390625 C 6.765625 -8.253906 6.722656 -8.148438 6.640625 -8.078125 C 6.554688 -8.003906 6.4375 -7.96875 6.28125 -7.96875 L 2.09375 -7.96875 L 2.09375 -4.90625 L 6.03125 -4.90625 C 6.1875 -4.90625 6.304688 -4.863281 6.390625 -4.78125 C 6.472656 -4.707031 6.515625 -4.601562 6.515625 -4.46875 C 6.515625 -4.34375 6.472656 -4.238281 6.390625 -4.15625 C 6.304688 -4.082031 6.1875 -4.046875 6.03125 -4.046875 L 2.09375 -4.046875 L 2.09375 -0.84375 L 6.28125 -0.84375 C 6.4375 -0.84375 6.554688 -0.804688 6.640625 -0.734375 C 6.722656 -0.671875 6.765625 -0.566406 6.765625 -0.421875 C 6.765625 -0.285156 6.722656 -0.179688 6.640625 -0.109375 C 6.554688 -0.0351562 6.4375 0 6.28125 0 Z M 1.609375 0 "/></g></g></g><g fill="#000000" fill-opacity="1"><g transform="translate(110.347432, 264.600216)"><g><path d="M 1.28125 -2.90625 C 1.125 -2.90625 1.003906 -2.941406 0.921875 -3.015625 C 0.847656 -3.097656 0.8125 -3.203125 0.8125 -3.328125 C 0.8125 -3.453125 0.847656 -3.550781 0.921875 -3.625 C 1.003906 -3.707031 1.125 -3.75 1.28125 -3.75 L 4.03125 -3.75 C 4.1875 -3.75 4.300781 -3.707031 4.375 -3.625 C 4.457031 -3.550781 4.5 -3.453125 4.5 -3.328125 C 4.5 -3.203125 4.457031 -3.097656 4.375 -3.015625 C 4.300781 -2.941406 4.1875 -2.90625 4.03125 -2.90625 Z M 1.28125 -2.90625 "/></g></g></g><g fill="#000000" fill-opacity="1"><g transform="translate(117.511981, 264.600216)"><g><path d="M 1.59375 0 C 1.445312 0 1.328125 -0.0390625 1.234375 -0.125 C 1.140625 -0.21875 1.09375 -0.332031 1.09375 -0.46875 L 1.09375 -8.34375 C 1.09375 -8.507812 1.132812 -8.640625 1.21875 -8.734375 C 1.3125 -8.828125 1.4375 -8.875 1.59375 -8.875 C 1.757812 -8.875 1.882812 -8.828125 1.96875 -8.734375 C 2.0625 -8.640625 2.109375 -8.507812 2.109375 -8.34375 L 2.109375 -0.875 L 6.15625 -0.875 C 6.300781 -0.875 6.414062 -0.835938 6.5 -0.765625 C 6.582031 -0.691406 6.625 -0.582031 6.625 -0.4375 C 6.625 -0.289062 6.582031 -0.179688 6.5 -0.109375 C 6.414062 -0.0351562 6.300781 0 6.15625 0 Z M 1.59375 0 "/></g></g></g><g fill="#000000" fill-opacity="1"><g transform="translate(126.114045, 264.600216)"><g><path d="M 1.609375 0 C 1.453125 0 1.328125 -0.046875 1.234375 -0.140625 C 1.140625 -0.234375 1.09375 -0.351562 1.09375 -0.5 L 1.09375 -8.3125 C 1.09375 -8.457031 1.140625 -8.578125 1.234375 -8.671875 C 1.328125 -8.765625 1.453125 -8.8125 1.609375 -8.8125 L 6.28125 -8.8125 C 6.4375 -8.8125 6.554688 -8.773438 6.640625 -8.703125 C 6.722656 -8.628906 6.765625 -8.523438 6.765625 -8.390625 C 6.765625 -8.253906 6.722656 -8.148438 6.640625 -8.078125 C 6.554688 -8.003906 6.4375 -7.96875 6.28125 -7.96875 L 2.09375 -7.96875 L 2.09375 -4.90625 L 6.03125 -4.90625 C 6.1875 -4.90625 6.304688 -4.863281 6.390625 -4.78125 C 6.472656 -4.707031 6.515625 -4.601562 6.515625 -4.46875 C 6.515625 -4.34375 6.472656 -4.238281 6.390625 -4.15625 C 6.304688 -4.082031 6.1875 -4.046875 6.03125 -4.046875 L 2.09375 -4.046875 L 2.09375 -0.84375 L 6.28125 -0.84375 C 6.4375 -0.84375 6.554688 -0.804688 6.640625 -0.734375 C 6.722656 -0.671875 6.765625 -0.566406 6.765625 -0.421875 C 6.765625 -0.285156 6.722656 -0.179688 6.640625 -0.109375 C 6.554688 -0.0351562 6.4375 0 6.28125 0 Z M 1.609375 0 "/></g></g></g><g fill="#000000" fill-opacity="1"><g transform="translate(135.241116, 264.600216)"><g><path d="M 8.671875 -0.59375 C 8.703125 -0.519531 8.71875 -0.445312 8.71875 -0.375 C 8.71875 -0.25 8.671875 -0.144531 8.578125 -0.0625 C 8.484375 0.0195312 8.367188 0.0625 8.234375 0.0625 C 8.023438 0.0625 7.878906 -0.0351562 7.796875 -0.234375 L 6.90625 -2.265625 L 2.203125 -2.265625 L 1.296875 -0.234375 C 1.210938 -0.0351562 1.066406 0.0625 0.859375 0.0625 C 0.722656 0.0625 0.601562 0.0195312 0.5 -0.0625 C 0.40625 -0.15625 0.359375 -0.265625 0.359375 -0.390625 C 0.359375 -0.453125 0.375 -0.519531 0.40625 -0.59375 L 3.984375 -8.53125 C 4.035156 -8.65625 4.109375 -8.742188 4.203125 -8.796875 C 4.304688 -8.859375 4.414062 -8.890625 4.53125 -8.890625 C 4.65625 -8.890625 4.769531 -8.859375 4.875 -8.796875 C 4.976562 -8.734375 5.050781 -8.644531 5.09375 -8.53125 Z M 2.578125 -3.109375 L 6.53125 -3.109375 L 4.546875 -7.59375 Z M 2.578125 -3.109375 "/></g></g></g><g fill="#000000" fill-opacity="1"><g transform="translate(146.180715, 264.600216)"><g><path d="M 7.8125 -0.640625 C 7.875 -0.546875 7.90625 -0.445312 7.90625 -0.34375 C 7.90625 -0.21875 7.851562 -0.113281 7.75 -0.03125 C 7.65625 0.0390625 7.546875 0.078125 7.421875 0.078125 C 7.234375 0.078125 7.082031 -0.00390625 6.96875 -0.171875 L 5.296875 -2.828125 C 5.078125 -3.171875 4.851562 -3.40625 4.625 -3.53125 C 4.394531 -3.65625 4.078125 -3.71875 3.671875 -3.71875 L 2.09375 -3.71875 L 2.09375 -0.46875 C 2.09375 -0.300781 2.046875 -0.171875 1.953125 -0.078125 C 1.867188 0.015625 1.75 0.0625 1.59375 0.0625 C 1.4375 0.0625 1.3125 0.015625 1.21875 -0.078125 C 1.132812 -0.171875 1.09375 -0.300781 1.09375 -0.46875 L 1.09375 -8.3125 C 1.09375 -8.457031 1.140625 -8.578125 1.234375 -8.671875 C 1.328125 -8.765625 1.453125 -8.8125 1.609375 -8.8125 L 4.71875 -8.8125 C 5.675781 -8.8125 6.40625 -8.597656 6.90625 -8.171875 C 7.40625 -7.742188 7.65625 -7.117188 7.65625 -6.296875 C 7.65625 -5.597656 7.453125 -5.035156 7.046875 -4.609375 C 6.648438 -4.179688 6.078125 -3.925781 5.328125 -3.84375 C 5.535156 -3.769531 5.722656 -3.65625 5.890625 -3.5 C 6.054688 -3.351562 6.222656 -3.148438 6.390625 -2.890625 Z M 4.625 -4.578125 C 5.3125 -4.578125 5.820312 -4.71875 6.15625 -5 C 6.488281 -5.28125 6.65625 -5.707031 6.65625 -6.28125 C 6.65625 -6.851562 6.488281 -7.273438 6.15625 -7.546875 C 5.820312 -7.828125 5.3125 -7.96875 4.625 -7.96875 L 2.09375 -7.96875 L 2.09375 -4.578125 Z M 4.625 -4.578125 "/></g></g></g><g fill="#000000" fill-opacity="1"><g transform="translate(156.607814, 264.600216)"><g><path d="M 7.671875 -8.875 C 7.828125 -8.875 7.945312 -8.828125 8.03125 -8.734375 C 8.113281 -8.640625 8.15625 -8.507812 8.15625 -8.34375 L 8.15625 -0.46875 C 8.15625 -0.300781 8.109375 -0.171875 8.015625 -0.078125 C 7.929688 0.015625 7.8125 0.0625 7.65625 0.0625 C 7.488281 0.0625 7.347656 -0.0078125 7.234375 -0.15625 L 2.046875 -7.09375 L 2.046875 -0.46875 C 2.046875 -0.300781 2 -0.171875 1.90625 -0.078125 C 1.820312 0.015625 1.707031 0.0625 1.5625 0.0625 C 1.414062 0.0625 1.300781 0.015625 1.21875 -0.078125 C 1.132812 -0.171875 1.09375 -0.300781 1.09375 -0.46875 L 1.09375 -8.34375 C 1.09375 -8.507812 1.132812 -8.640625 1.21875 -8.734375 C 1.300781 -8.828125 1.425781 -8.875 1.59375 -8.875 C 1.757812 -8.875 1.898438 -8.800781 2.015625 -8.65625 L 7.1875 -1.71875 L 7.1875 -8.34375 C 7.1875 -8.507812 7.226562 -8.640625 7.3125 -8.734375 C 7.40625 -8.828125 7.523438 -8.875 7.671875 -8.875 Z M 7.671875 -8.875 "/></g></g></g><g fill="#000000" fill-opacity="1"><g transform="translate(167.697418, 264.600216)"><g><path d="M 1.59375 0.0625 C 1.4375 0.0625 1.3125 0.015625 1.21875 -0.078125 C 1.132812 -0.171875 1.09375 -0.300781 1.09375 -0.46875 L 1.09375 -8.34375 C 1.09375 -8.507812 1.132812 -8.640625 1.21875 -8.734375 C 1.3125 -8.828125 1.4375 -8.875 1.59375 -8.875 C 1.757812 -8.875 1.882812 -8.828125 1.96875 -8.734375 C 2.0625 -8.640625 2.109375 -8.507812 2.109375 -8.34375 L 2.109375 -0.46875 C 2.109375 -0.300781 2.0625 -0.171875 1.96875 -0.078125 C 1.882812 0.015625 1.757812 0.0625 1.59375 0.0625 Z M 1.59375 0.0625 "/></g></g></g><g fill="#000000" fill-opacity="1"><g transform="translate(172.749428, 264.600216)"><g><path d="M 7.671875 -8.875 C 7.828125 -8.875 7.945312 -8.828125 8.03125 -8.734375 C 8.113281 -8.640625 8.15625 -8.507812 8.15625 -8.34375 L 8.15625 -0.46875 C 8.15625 -0.300781 8.109375 -0.171875 8.015625 -0.078125 C 7.929688 0.015625 7.8125 0.0625 7.65625 0.0625 C 7.488281 0.0625 7.347656 -0.0078125 7.234375 -0.15625 L 2.046875 -7.09375 L 2.046875 -0.46875 C 2.046875 -0.300781 2 -0.171875 1.90625 -0.078125 C 1.820312 0.015625 1.707031 0.0625 1.5625 0.0625 C 1.414062 0.0625 1.300781 0.015625 1.21875 -0.078125 C 1.132812 -0.171875 1.09375 -0.300781 1.09375 -0.46875 L 1.09375 -8.34375 C 1.09375 -8.507812 1.132812 -8.640625 1.21875 -8.734375 C 1.300781 -8.828125 1.425781 -8.875 1.59375 -8.875 C 1.757812 -8.875 1.898438 -8.800781 2.015625 -8.65625 L 7.1875 -1.71875 L 7.1875 -8.34375 C 7.1875 -8.507812 7.226562 -8.640625 7.3125 -8.734375 C 7.40625 -8.828125 7.523438 -8.875 7.671875 -8.875 Z M 7.671875 -8.875 "/></g></g></g><g fill="#000000" fill-opacity="1"><g transform="translate(183.839031, 264.600216)"><g><path d="M 7.640625 -4.59375 C 7.765625 -4.59375 7.863281 -4.550781 7.9375 -4.46875 C 8.019531 -4.394531 8.0625 -4.289062 8.0625 -4.15625 L 8.0625 -1.046875 C 8.0625 -0.847656 8.03125 -0.695312 7.96875 -0.59375 C 7.90625 -0.5 7.789062 -0.421875 7.625 -0.359375 C 7.289062 -0.222656 6.882812 -0.113281 6.40625 -0.03125 C 5.9375 0.0507812 5.460938 0.09375 4.984375 0.09375 C 4.109375 0.09375 3.351562 -0.0820312 2.71875 -0.4375 C 2.09375 -0.789062 1.609375 -1.304688 1.265625 -1.984375 C 0.929688 -2.660156 0.765625 -3.46875 0.765625 -4.40625 C 0.765625 -5.332031 0.929688 -6.132812 1.265625 -6.8125 C 1.597656 -7.488281 2.078125 -8.003906 2.703125 -8.359375 C 3.328125 -8.722656 4.0625 -8.90625 4.90625 -8.90625 C 5.488281 -8.90625 6.03125 -8.816406 6.53125 -8.640625 C 7.03125 -8.460938 7.445312 -8.207031 7.78125 -7.875 C 7.925781 -7.726562 8 -7.582031 8 -7.4375 C 8 -7.320312 7.960938 -7.21875 7.890625 -7.125 C 7.828125 -7.039062 7.75 -7 7.65625 -7 C 7.550781 -7 7.429688 -7.050781 7.296875 -7.15625 C 6.867188 -7.488281 6.476562 -7.71875 6.125 -7.84375 C 5.769531 -7.96875 5.363281 -8.03125 4.90625 -8.03125 C 3.914062 -8.03125 3.15625 -7.71875 2.625 -7.09375 C 2.101562 -6.46875 1.84375 -5.570312 1.84375 -4.40625 C 1.84375 -3.21875 2.109375 -2.3125 2.640625 -1.6875 C 3.179688 -1.070312 3.972656 -0.765625 5.015625 -0.765625 C 5.785156 -0.765625 6.488281 -0.878906 7.125 -1.109375 L 7.125 -3.78125 L 5.296875 -3.78125 C 5.160156 -3.78125 5.050781 -3.816406 4.96875 -3.890625 C 4.882812 -3.972656 4.84375 -4.070312 4.84375 -4.1875 C 4.84375 -4.3125 4.882812 -4.410156 4.96875 -4.484375 C 5.050781 -4.554688 5.160156 -4.59375 5.296875 -4.59375 Z M 7.640625 -4.59375 "/></g></g></g><g fill="#000000" fill-opacity="1"><g transform="translate(194.741133, 264.600216)"><g/></g></g><g fill="#000000" fill-opacity="1"><g transform="translate(199.818146, 264.600216)"><g><path d="M 1.59375 0.0625 C 1.4375 0.0625 1.3125 0.015625 1.21875 -0.078125 C 1.132812 -0.171875 1.09375 -0.300781 1.09375 -0.46875 L 1.09375 -8.3125 C 1.09375 -8.457031 1.140625 -8.578125 1.234375 -8.671875 C 1.328125 -8.765625 1.453125 -8.8125 1.609375 -8.8125 L 4.578125 -8.8125 C 5.503906 -8.8125 6.222656 -8.585938 6.734375 -8.140625 C 7.242188 -7.691406 7.5 -7.050781 7.5 -6.21875 C 7.5 -5.394531 7.238281 -4.753906 6.71875 -4.296875 C 6.207031 -3.835938 5.492188 -3.609375 4.578125 -3.609375 L 2.109375 -3.609375 L 2.109375 -0.46875 C 2.109375 -0.300781 2.0625 -0.171875 1.96875 -0.078125 C 1.882812 0.015625 1.757812 0.0625 1.59375 0.0625 Z M 4.46875 -4.46875 C 5.8125 -4.46875 6.484375 -5.050781 6.484375 -6.21875 C 6.484375 -7.382812 5.8125 -7.96875 4.46875 -7.96875 L 2.109375 -7.96875 L 2.109375 -4.46875 Z M 4.46875 -4.46875 "/></g></g></g><g fill="#000000" fill-opacity="1"><g transform="translate(209.732739, 264.600216)"><g><path d="M 1.59375 0 C 1.445312 0 1.328125 -0.0390625 1.234375 -0.125 C 1.140625 -0.21875 1.09375 -0.332031 1.09375 -0.46875 L 1.09375 -8.34375 C 1.09375 -8.507812 1.132812 -8.640625 1.21875 -8.734375 C 1.3125 -8.828125 1.4375 -8.875 1.59375 -8.875 C 1.757812 -8.875 1.882812 -8.828125 1.96875 -8.734375 C 2.0625 -8.640625 2.109375 -8.507812 2.109375 -8.34375 L 2.109375 -0.875 L 6.15625 -0.875 C 6.300781 -0.875 6.414062 -0.835938 6.5 -0.765625 C 6.582031 -0.691406 6.625 -0.582031 6.625 -0.4375 C 6.625 -0.289062 6.582031 -0.179688 6.5 -0.109375 C 6.414062 -0.0351562 6.300781 0 6.15625 0 Z M 1.59375 0 "/></g></g></g><g fill="#000000" fill-opacity="1"><g transform="translate(218.334801, 264.600216)"><g><path d="M 8.671875 -0.59375 C 8.703125 -0.519531 8.71875 -0.445312 8.71875 -0.375 C 8.71875 -0.25 8.671875 -0.144531 8.578125 -0.0625 C 8.484375 0.0195312 8.367188 0.0625 8.234375 0.0625 C 8.023438 0.0625 7.878906 -0.0351562 7.796875 -0.234375 L 6.90625 -2.265625 L 2.203125 -2.265625 L 1.296875 -0.234375 C 1.210938 -0.0351562 1.066406 0.0625 0.859375 0.0625 C 0.722656 0.0625 0.601562 0.0195312 0.5 -0.0625 C 0.40625 -0.15625 0.359375 -0.265625 0.359375 -0.390625 C 0.359375 -0.453125 0.375 -0.519531 0.40625 -0.59375 L 3.984375 -8.53125 C 4.035156 -8.65625 4.109375 -8.742188 4.203125 -8.796875 C 4.304688 -8.859375 4.414062 -8.890625 4.53125 -8.890625 C 4.65625 -8.890625 4.769531 -8.859375 4.875 -8.796875 C 4.976562 -8.734375 5.050781 -8.644531 5.09375 -8.53125 Z M 2.578125 -3.109375 L 6.53125 -3.109375 L 4.546875 -7.59375 Z M 2.578125 -3.109375 "/></g></g></g><g fill="#000000" fill-opacity="1"><g transform="translate(229.2744, 264.600216)"><g><path d="M 3.734375 0.0625 C 3.578125 0.0625 3.453125 0.015625 3.359375 -0.078125 C 3.265625 -0.171875 3.21875 -0.300781 3.21875 -0.46875 L 3.21875 -7.9375 L 0.53125 -7.9375 C 0.375 -7.9375 0.253906 -7.972656 0.171875 -8.046875 C 0.0859375 -8.117188 0.046875 -8.226562 0.046875 -8.375 C 0.046875 -8.519531 0.0859375 -8.628906 0.171875 -8.703125 C 0.253906 -8.773438 0.375 -8.8125 0.53125 -8.8125 L 6.9375 -8.8125 C 7.082031 -8.8125 7.195312 -8.773438 7.28125 -8.703125 C 7.363281 -8.628906 7.40625 -8.519531 7.40625 -8.375 C 7.40625 -8.226562 7.363281 -8.117188 7.28125 -8.046875 C 7.195312 -7.972656 7.082031 -7.9375 6.9375 -7.9375 L 4.25 -7.9375 L 4.25 -0.46875 C 4.25 -0.300781 4.203125 -0.171875 4.109375 -0.078125 C 4.015625 0.015625 3.890625 0.0625 3.734375 0.0625 Z M 3.734375 0.0625 "/></g></g></g><g fill="#000000" fill-opacity="1"><g transform="translate(238.601479, 264.600216)"><g><path d="M 1.59375 0.0625 C 1.4375 0.0625 1.3125 0.015625 1.21875 -0.078125 C 1.132812 -0.171875 1.09375 -0.300781 1.09375 -0.46875 L 1.09375 -8.3125 C 1.09375 -8.457031 1.140625 -8.578125 1.234375 -8.671875 C 1.328125 -8.765625 1.453125 -8.8125 1.609375 -8.8125 L 6.15625 -8.8125 C 6.3125 -8.8125 6.429688 -8.773438 6.515625 -8.703125 C 6.597656 -8.628906 6.640625 -8.519531 6.640625 -8.375 C 6.640625 -8.238281 6.597656 -8.132812 6.515625 -8.0625 C 6.429688 -7.988281 6.3125 -7.953125 6.15625 -7.953125 L 2.09375 -7.953125 L 2.09375 -4.90625 L 5.90625 -4.90625 C 6.0625 -4.90625 6.179688 -4.867188 6.265625 -4.796875 C 6.347656 -4.722656 6.390625 -4.613281 6.390625 -4.46875 C 6.390625 -4.34375 6.347656 -4.238281 6.265625 -4.15625 C 6.179688 -4.082031 6.0625 -4.046875 5.90625 -4.046875 L 2.09375 -4.046875 L 2.09375 -0.46875 C 2.09375 -0.300781 2.050781 -0.171875 1.96875 -0.078125 C 1.882812 0.015625 1.757812 0.0625 1.59375 0.0625 Z M 1.59375 0.0625 "/></g></g></g><g fill="#000000" fill-opacity="1"><g transform="translate(247.416046, 264.600216)"><g><path d="M 4.78125 0.09375 C 3.957031 0.09375 3.242188 -0.0859375 2.640625 -0.453125 C 2.035156 -0.816406 1.570312 -1.335938 1.25 -2.015625 C 0.925781 -2.691406 0.765625 -3.488281 0.765625 -4.40625 C 0.765625 -5.320312 0.921875 -6.117188 1.234375 -6.796875 C 1.554688 -7.484375 2.019531 -8.003906 2.625 -8.359375 C 3.226562 -8.722656 3.945312 -8.90625 4.78125 -8.90625 C 5.601562 -8.90625 6.316406 -8.722656 6.921875 -8.359375 C 7.523438 -8.003906 7.984375 -7.484375 8.296875 -6.796875 C 8.617188 -6.117188 8.78125 -5.320312 8.78125 -4.40625 C 8.78125 -3.488281 8.617188 -2.691406 8.296875 -2.015625 C 7.972656 -1.335938 7.507812 -0.816406 6.90625 -0.453125 C 6.300781 -0.0859375 5.59375 0.09375 4.78125 0.09375 Z M 4.78125 -0.78125 C 5.707031 -0.78125 6.429688 -1.09375 6.953125 -1.71875 C 7.472656 -2.34375 7.734375 -3.238281 7.734375 -4.40625 C 7.734375 -5.570312 7.472656 -6.46875 6.953125 -7.09375 C 6.441406 -7.71875 5.71875 -8.03125 4.78125 -8.03125 C 3.84375 -8.03125 3.113281 -7.71875 2.59375 -7.09375 C 2.070312 -6.46875 1.8125 -5.570312 1.8125 -4.40625 C 1.8125 -3.25 2.070312 -2.351562 2.59375 -1.71875 C 3.113281 -1.09375 3.84375 -0.78125 4.78125 -0.78125 Z M 4.78125 -0.78125 "/></g></g></g><g fill="#000000" fill-opacity="1"><g transform="translate(258.818152, 264.600216)"><g><path d="M 7.8125 -0.640625 C 7.875 -0.546875 7.90625 -0.445312 7.90625 -0.34375 C 7.90625 -0.21875 7.851562 -0.113281 7.75 -0.03125 C 7.65625 0.0390625 7.546875 0.078125 7.421875 0.078125 C 7.234375 0.078125 7.082031 -0.00390625 6.96875 -0.171875 L 5.296875 -2.828125 C 5.078125 -3.171875 4.851562 -3.40625 4.625 -3.53125 C 4.394531 -3.65625 4.078125 -3.71875 3.671875 -3.71875 L 2.09375 -3.71875 L 2.09375 -0.46875 C 2.09375 -0.300781 2.046875 -0.171875 1.953125 -0.078125 C 1.867188 0.015625 1.75 0.0625 1.59375 0.0625 C 1.4375 0.0625 1.3125 0.015625 1.21875 -0.078125 C 1.132812 -0.171875 1.09375 -0.300781 1.09375 -0.46875 L 1.09375 -8.3125 C 1.09375 -8.457031 1.140625 -8.578125 1.234375 -8.671875 C 1.328125 -8.765625 1.453125 -8.8125 1.609375 -8.8125 L 4.71875 -8.8125 C 5.675781 -8.8125 6.40625 -8.597656 6.90625 -8.171875 C 7.40625 -7.742188 7.65625 -7.117188 7.65625 -6.296875 C 7.65625 -5.597656 7.453125 -5.035156 7.046875 -4.609375 C 6.648438 -4.179688 6.078125 -3.925781 5.328125 -3.84375 C 5.535156 -3.769531 5.722656 -3.65625 5.890625 -3.5 C 6.054688 -3.351562 6.222656 -3.148438 6.390625 -2.890625 Z M 4.625 -4.578125 C 5.3125 -4.578125 5.820312 -4.71875 6.15625 -5 C 6.488281 -5.28125 6.65625 -5.707031 6.65625 -6.28125 C 6.65625 -6.851562 6.488281 -7.273438 6.15625 -7.546875 C 5.820312 -7.828125 5.3125 -7.96875 4.625 -7.96875 L 2.09375 -7.96875 L 2.09375 -4.578125 Z M 4.625 -4.578125 "/></g></g></g><g fill="#000000" fill-opacity="1"><g transform="translate(269.245251, 264.600216)"><g><path d="M 8.90625 -8.875 C 9.070312 -8.875 9.195312 -8.828125 9.28125 -8.734375 C 9.363281 -8.640625 9.40625 -8.507812 9.40625 -8.34375 L 9.40625 -0.4375 C 9.40625 -0.289062 9.363281 -0.171875 9.28125 -0.078125 C 9.195312 0.015625 9.082031 0.0625 8.9375 0.0625 C 8.789062 0.0625 8.675781 0.015625 8.59375 -0.078125 C 8.519531 -0.171875 8.484375 -0.289062 8.484375 -0.4375 L 8.484375 -6.828125 L 5.78125 -1.625 C 5.65625 -1.382812 5.484375 -1.265625 5.265625 -1.265625 C 5.046875 -1.265625 4.875 -1.382812 4.75 -1.625 L 2.03125 -6.765625 L 2.03125 -0.4375 C 2.03125 -0.289062 1.988281 -0.171875 1.90625 -0.078125 C 1.820312 0.015625 1.707031 0.0625 1.5625 0.0625 C 1.414062 0.0625 1.300781 0.015625 1.21875 -0.078125 C 1.132812 -0.171875 1.09375 -0.289062 1.09375 -0.4375 L 1.09375 -8.34375 C 1.09375 -8.507812 1.132812 -8.640625 1.21875 -8.734375 C 1.3125 -8.828125 1.4375 -8.875 1.59375 -8.875 C 1.800781 -8.875 1.96875 -8.753906 2.09375 -8.515625 L 5.28125 -2.421875 L 8.40625 -8.515625 C 8.476562 -8.648438 8.550781 -8.742188 8.625 -8.796875 C 8.707031 -8.847656 8.800781 -8.875 8.90625 -8.875 Z M 8.90625 -8.875 "/></g></g></g></svg>