<svg  xmlns="http://www.w3.org/2000/svg" xmlns:xlink="http://www.w3.org/1999/xlink" width="500" zoomAndPan="magnify" viewBox="0 0 375 374.999991" height="500" preserveAspectRatio="xMidYMid meet" version="1.0"><defs><g/><clipPath id="cceef43b64"><path d="M 60.449219 150 L 81 150 L 81 172 L 60.449219 172 Z M 60.449219 150 " clip-rule="nonzero"/></clipPath></defs><path fill="#aa2ee6" d="M 71.019531 122.953125 C 75.296875 117.28125 83.441406 116.144531 89.113281 120.414062 L 129.265625 150.671875 C 134.9375 154.953125 136.085938 163.09375 131.804688 168.769531 C 127.523438 174.441406 119.382812 175.589844 113.710938 171.308594 L 73.566406 141.050781 C 67.882812 136.777344 66.746094 128.636719 71.019531 122.953125 Z M 71.019531 122.953125 " fill-opacity="0.8" fill-rule="evenodd"/><path fill="#000000" d="M 71.019531 198.992188 C 75.296875 204.667969 83.441406 205.804688 89.113281 201.53125 L 129.265625 171.273438 C 134.9375 166.992188 136.085938 158.851562 131.804688 153.175781 C 127.523438 147.503906 119.382812 146.359375 113.710938 150.636719 L 73.566406 180.898438 C 67.882812 185.167969 66.746094 193.3125 71.019531 198.992188 Z M 71.019531 198.992188 " fill-opacity="0.8" fill-rule="evenodd"/><g clip-path="url(#cceef43b64)"><path fill="#000000" d="M 80.5625 160.972656 C 80.5625 161.632812 80.5 162.285156 80.371094 162.933594 C 80.242188 163.582031 80.050781 164.210938 79.796875 164.820312 C 79.546875 165.429688 79.238281 166.007812 78.871094 166.558594 C 78.503906 167.105469 78.085938 167.613281 77.621094 168.082031 C 77.152344 168.546875 76.644531 168.964844 76.097656 169.332031 C 75.546875 169.695312 74.96875 170.007812 74.359375 170.257812 C 73.75 170.511719 73.121094 170.703125 72.472656 170.832031 C 71.828125 170.960938 71.171875 171.023438 70.511719 171.023438 C 69.851562 171.023438 69.199219 170.960938 68.550781 170.832031 C 67.90625 170.703125 67.277344 170.511719 66.667969 170.257812 C 66.054688 170.007812 65.476562 169.695312 64.929688 169.332031 C 64.378906 168.964844 63.871094 168.546875 63.40625 168.082031 C 62.9375 167.613281 62.523438 167.105469 62.15625 166.558594 C 61.789062 166.007812 61.480469 165.429688 61.226562 164.820312 C 60.972656 164.210938 60.785156 163.582031 60.65625 162.933594 C 60.527344 162.285156 60.460938 161.632812 60.460938 160.972656 C 60.460938 160.3125 60.527344 159.660156 60.65625 159.011719 C 60.785156 158.367188 60.972656 157.738281 61.226562 157.128906 C 61.480469 156.515625 61.789062 155.9375 62.15625 155.390625 C 62.523438 154.839844 62.9375 154.332031 63.40625 153.867188 C 63.871094 153.398438 64.378906 152.984375 64.929688 152.617188 C 65.476562 152.25 66.054688 151.941406 66.667969 151.6875 C 67.277344 151.433594 67.90625 151.246094 68.550781 151.117188 C 69.199219 150.988281 69.851562 150.921875 70.511719 150.921875 C 71.171875 150.921875 71.828125 150.988281 72.472656 151.117188 C 73.121094 151.246094 73.75 151.433594 74.359375 151.6875 C 74.96875 151.941406 75.546875 152.25 76.097656 152.617188 C 76.644531 152.984375 77.152344 153.398438 77.621094 153.867188 C 78.085938 154.332031 78.503906 154.839844 78.871094 155.390625 C 79.238281 155.9375 79.546875 156.515625 79.796875 157.128906 C 80.050781 157.738281 80.242188 158.367188 80.371094 159.011719 C 80.5 159.660156 80.5625 160.3125 80.5625 160.972656 Z M 80.5625 160.972656 " fill-opacity="1" fill-rule="nonzero"/></g><g fill="#040c18" fill-opacity="1"><g transform="translate(151.859644, 175.223852)"><g><path d="M 6.234375 0 C 5.359375 0 4.671875 -0.238281 4.171875 -0.71875 C 3.679688 -1.195312 3.4375 -1.875 3.4375 -2.75 L 3.4375 -29.078125 C 3.4375 -29.941406 3.679688 -30.613281 4.171875 -31.09375 C 4.671875 -31.582031 5.359375 -31.828125 6.234375 -31.828125 L 15.171875 -31.828125 C 20.378906 -31.828125 24.414062 -30.429688 27.28125 -27.640625 C 30.15625 -24.859375 31.59375 -20.957031 31.59375 -15.9375 C 31.59375 -10.875 30.15625 -6.953125 27.28125 -4.171875 C 24.414062 -1.390625 20.378906 0 15.171875 0 Z M 14.8125 -4.734375 C 22.125 -4.734375 25.78125 -8.46875 25.78125 -15.9375 C 25.78125 -23.363281 22.125 -27.078125 14.8125 -27.078125 L 9.25 -27.078125 L 9.25 -4.734375 Z M 14.8125 -4.734375 "/></g></g></g><g fill="#040c18" fill-opacity="1"><g transform="translate(185.886818, 175.223852)"><g><path d="M 32.28125 -3.46875 C 32.457031 -3.082031 32.546875 -2.691406 32.546875 -2.296875 C 32.546875 -1.609375 32.265625 -1.019531 31.703125 -0.53125 C 31.148438 -0.0507812 30.515625 0.1875 29.796875 0.1875 C 29.316406 0.1875 28.863281 0.0546875 28.4375 -0.203125 C 28.019531 -0.460938 27.691406 -0.863281 27.453125 -1.40625 L 24.734375 -7.453125 L 8.84375 -7.453125 L 6.140625 -1.40625 C 5.898438 -0.863281 5.566406 -0.460938 5.140625 -0.203125 C 4.722656 0.0546875 4.257812 0.1875 3.75 0.1875 C 3.050781 0.1875 2.414062 -0.0507812 1.84375 -0.53125 C 1.28125 -1.019531 1 -1.609375 1 -2.296875 C 1 -2.691406 1.085938 -3.082031 1.265625 -3.46875 L 13.71875 -30.25 C 13.988281 -30.84375 14.398438 -31.296875 14.953125 -31.609375 C 15.515625 -31.929688 16.113281 -32.09375 16.75 -32.09375 C 17.375 -32.09375 17.960938 -31.929688 18.515625 -31.609375 C 19.078125 -31.296875 19.492188 -30.84375 19.765625 -30.25 Z M 10.828125 -11.96875 L 22.75 -11.96875 L 16.796875 -25.375 Z M 10.828125 -11.96875 "/></g></g></g><g fill="#040c18" fill-opacity="1"><g transform="translate(219.372446, 175.223852)"><g><path d="M 14.4375 0.40625 C 12.125 0.40625 9.9375 0.0976562 7.875 -0.515625 C 5.8125 -1.128906 4.132812 -1.96875 2.84375 -3.03125 C 2.15625 -3.539062 1.8125 -4.257812 1.8125 -5.1875 C 1.8125 -5.820312 2 -6.367188 2.375 -6.828125 C 2.75 -7.296875 3.191406 -7.53125 3.703125 -7.53125 C 4.242188 -7.53125 4.859375 -7.320312 5.546875 -6.90625 C 6.847656 -5.96875 8.203125 -5.289062 9.609375 -4.875 C 11.023438 -4.457031 12.59375 -4.25 14.3125 -4.25 C 16.507812 -4.25 18.191406 -4.628906 19.359375 -5.390625 C 20.535156 -6.160156 21.125 -7.28125 21.125 -8.75 C 21.125 -9.894531 20.570312 -10.773438 19.46875 -11.390625 C 18.375 -12.015625 16.550781 -12.613281 14 -13.1875 C 11.34375 -13.75 9.1875 -14.40625 7.53125 -15.15625 C 5.882812 -15.914062 4.640625 -16.878906 3.796875 -18.046875 C 2.953125 -19.222656 2.53125 -20.71875 2.53125 -22.53125 C 2.53125 -24.394531 3.054688 -26.0625 4.109375 -27.53125 C 5.160156 -29.007812 6.625 -30.160156 8.5 -30.984375 C 10.382812 -31.816406 12.5 -32.234375 14.84375 -32.234375 C 19.15625 -32.234375 22.664062 -31.085938 25.375 -28.796875 C 25.757812 -28.460938 26.035156 -28.140625 26.203125 -27.828125 C 26.367188 -27.515625 26.453125 -27.117188 26.453125 -26.640625 C 26.453125 -26.003906 26.265625 -25.453125 25.890625 -24.984375 C 25.515625 -24.515625 25.070312 -24.28125 24.5625 -24.28125 C 24.257812 -24.28125 23.976562 -24.328125 23.71875 -24.421875 C 23.46875 -24.515625 23.128906 -24.679688 22.703125 -24.921875 C 21.472656 -25.816406 20.273438 -26.484375 19.109375 -26.921875 C 17.953125 -27.359375 16.53125 -27.578125 14.84375 -27.578125 C 12.800781 -27.578125 11.1875 -27.160156 10 -26.328125 C 8.8125 -25.503906 8.21875 -24.359375 8.21875 -22.890625 C 8.21875 -21.648438 8.742188 -20.695312 9.796875 -20.03125 C 10.847656 -19.375 12.640625 -18.757812 15.171875 -18.1875 C 17.847656 -17.582031 20.019531 -16.910156 21.6875 -16.171875 C 23.363281 -15.441406 24.644531 -14.503906 25.53125 -13.359375 C 26.414062 -12.210938 26.859375 -10.785156 26.859375 -9.078125 C 26.859375 -7.210938 26.335938 -5.5625 25.296875 -4.125 C 24.265625 -2.695312 22.804688 -1.582031 20.921875 -0.78125 C 19.035156 0.0078125 16.875 0.40625 14.4375 0.40625 Z M 14.4375 0.40625 "/></g></g></g><g fill="#040c18" fill-opacity="1"><g transform="translate(248.164669, 175.223852)"><g><path d="M 17.65625 0.40625 C 14.582031 0.40625 11.894531 -0.253906 9.59375 -1.578125 C 7.289062 -2.898438 5.519531 -4.796875 4.28125 -7.265625 C 3.050781 -9.734375 2.4375 -12.625 2.4375 -15.9375 C 2.4375 -19.25 3.050781 -22.128906 4.28125 -24.578125 C 5.519531 -27.035156 7.289062 -28.925781 9.59375 -30.25 C 11.894531 -31.570312 14.582031 -32.234375 17.65625 -32.234375 C 19.632812 -32.234375 21.492188 -31.9375 23.234375 -31.34375 C 24.984375 -30.757812 26.535156 -29.910156 27.890625 -28.796875 C 28.285156 -28.492188 28.554688 -28.175781 28.703125 -27.84375 C 28.859375 -27.519531 28.9375 -27.117188 28.9375 -26.640625 C 28.9375 -25.972656 28.753906 -25.410156 28.390625 -24.953125 C 28.035156 -24.503906 27.597656 -24.28125 27.078125 -24.28125 C 26.484375 -24.28125 25.867188 -24.492188 25.234375 -24.921875 C 23.941406 -25.878906 22.738281 -26.546875 21.625 -26.921875 C 20.507812 -27.296875 19.273438 -27.484375 17.921875 -27.484375 C 14.785156 -27.484375 12.410156 -26.503906 10.796875 -24.546875 C 9.191406 -22.597656 8.390625 -19.726562 8.390625 -15.9375 C 8.390625 -12.113281 9.191406 -9.222656 10.796875 -7.265625 C 12.410156 -5.304688 14.785156 -4.328125 17.921875 -4.328125 C 19.210938 -4.328125 20.40625 -4.519531 21.5 -4.90625 C 22.601562 -5.300781 23.847656 -5.96875 25.234375 -6.90625 C 25.535156 -7.082031 25.835938 -7.226562 26.140625 -7.34375 C 26.441406 -7.46875 26.753906 -7.53125 27.078125 -7.53125 C 27.597656 -7.53125 28.035156 -7.304688 28.390625 -6.859375 C 28.753906 -6.410156 28.9375 -5.851562 28.9375 -5.1875 C 28.9375 -4.738281 28.859375 -4.335938 28.703125 -3.984375 C 28.554688 -3.640625 28.285156 -3.320312 27.890625 -3.03125 C 26.535156 -1.914062 24.984375 -1.0625 23.234375 -0.46875 C 21.492188 0.113281 19.632812 0.40625 17.65625 0.40625 Z M 17.65625 0.40625 "/></g></g></g><g fill="#040c18" fill-opacity="1"><g transform="translate(278.762049, 175.223852)"><g><path d="M 23.296875 -31.0625 C 23.835938 -31.71875 24.484375 -32.046875 25.234375 -32.046875 C 25.921875 -32.046875 26.535156 -31.78125 27.078125 -31.25 C 27.617188 -30.726562 27.890625 -30.109375 27.890625 -29.390625 C 27.890625 -28.785156 27.664062 -28.210938 27.21875 -27.671875 L 16.96875 -15.171875 L 16.96875 -2.65625 C 16.96875 -1.726562 16.695312 -1.007812 16.15625 -0.5 C 15.613281 0.0078125 14.921875 0.265625 14.078125 0.265625 C 13.210938 0.265625 12.507812 0.0078125 11.96875 -0.5 C 11.425781 -1.007812 11.15625 -1.726562 11.15625 -2.65625 L 11.15625 -15.171875 L 0.90625 -27.671875 C 0.445312 -28.210938 0.21875 -28.785156 0.21875 -29.390625 C 0.21875 -30.109375 0.488281 -30.726562 1.03125 -31.25 C 1.570312 -31.78125 2.191406 -32.046875 2.890625 -32.046875 C 3.640625 -32.046875 4.285156 -31.71875 4.828125 -31.0625 L 14.078125 -19.59375 Z M 23.296875 -31.0625 "/></g></g></g></svg>